<?xml version="1.0" standalone="no"?>
<!DOCTYPE svg PUBLIC "-//W3C//DTD SVG 20010904//EN"
 "http://www.w3.org/TR/2001/REC-SVG-20010904/DTD/svg10.dtd">
<svg version="1.0" xmlns="http://www.w3.org/2000/svg"
 width="180.000000pt" height="180.000000pt" viewBox="0 0 180.000000 180.000000"
 preserveAspectRatio="xMidYMid meet">

<g transform="translate(0.000000,180.000000) scale(0.100000,-0.100000)"
fill="#000000" stroke="none">
<path d="M790 1670 c-87 -14 -209 -56 -280 -97 -84 -49 -234 -199 -283 -283
-79 -136 -118 -325 -99 -476 14 -101 57 -232 103 -311 48 -82 190 -222 274
-271 145 -84 326 -123 483 -102 186 24 327 94 458 224 130 131 200 272 224
459 36 270 -93 557 -326 723 -150 107 -377 162 -554 134z m186 -415 c-5 -27
-4 -35 8 -35 8 0 20 16 26 35 11 34 13 35 62 35 36 0 49 -4 45 -12 -19 -53
-19 -57 10 -64 99 -22 153 -62 173 -131 11 -37 11 -52 -4 -107 -48 -176 -192
-316 -386 -376 -46 -15 -58 -23 -73 -54 -16 -34 -20 -36 -63 -36 -44 0 -46 1
-40 25 9 34 -21 34 -34 0 -8 -22 -15 -25 -60 -25 -49 0 -49 0 -40 25 9 24 8
25 -35 25 -25 0 -45 5 -45 11 0 14 170 432 180 443 11 11 160 10 170 -1 4 -4
-18 -75 -50 -158 l-58 -150 25 -3 c38 -5 123 26 175 64 84 60 151 190 134 257
-4 16 -21 36 -39 47 -30 18 -51 20 -290 20 l-258 0 35 63 35 62 141 3 141 3
15 34 c13 33 17 35 60 35 l46 0 -6 -35z"/>
</g>
</svg>
